
<svg xmlns="http://www.w3.org/2000/svg" version="1.1" xmlns:xlink="http://www.w3.org/1999/xlink" preserveAspectRatio="none" x="0px" y="0px" width="1024px" height="1024px" viewBox="0 0 1024 1024">
<defs>
<g id="Layer0_0_MEMBER_0_MEMBER_0_FILL">
<path fill="#FCFCFC" stroke="none" d="
M 55.7 24.75
Q 59.5 23.25 62.7 19.45
L 61.25 19.4
Q 52.8 19.4 45.65 24
L 47.55 24.85
Q 51.55 26.35 55.7 24.75 Z"/>
</g>

<g id="Layer0_0_MEMBER_0_MEMBER_1_FILL">
<path fill="#EFEFEF" stroke="none" d="
M 71.25 21.2
Q 67.1 19.65 62.7 19.45 59.5 23.25 55.7 24.75 51.55 26.35 47.55 24.85
L 45.65 24
Q 41.65 26.6 38.9 30.05 40.2 29.4 43.5 28.1 45.9 27.45 52.15 29.75 57.15 31.6 58.95 28.9 63.85 22.65 71.25 21.2 Z"/>
</g>

<g id="Layer0_0_MEMBER_0_MEMBER_2_FILL">
<path fill="#E5E5E5" stroke="none" d="
M 58.95 28.9
Q 57.15 31.6 52.15 29.75 45.9 27.45 43.5 28.1 40.2 29.4 38.9 30.05
L 37.35 32.1
Q 39.05 31.4 41.1 31.75 42.9 32.05 44.3 32.95 46.35 34.2 51 37.2 55.35 39.4 58.95 37.85 61.5 36.55 64.55 32.15 67.65 27.6 69.5 26.5 71.95 24.95 75.3 25.6 77.25 26 81.1 27.4 76.75 23.2 71.25 21.2 63.85 22.65 58.95 28.9 Z"/>
</g>

<g id="Layer0_0_MEMBER_0_MEMBER_3_FILL">
<path fill="#DBDBDB" stroke="none" d="
M 86.55 34.55
Q 84.25 30.3 81.1 27.4 77.25 26 75.3 25.6 71.95 24.95 69.5 26.5 67.65 27.6 64.55 32.15 61.5 36.55 58.95 37.85 55.35 39.4 51 37.2 46.35 34.2 44.3 32.95 42.9 32.05 41.1 31.75 39.05 31.4 37.35 32.1 35.35 35.2 34.15 38.6 36.8 37.35 40.35 39.35 41.7 40.1 45.95 43.5 52.35 47.95 60.05 46.35 68.2 44.6 71.1 37 72.5 33.8 77 35.1 82.75 36.75 84.15 36.2 85.45 35.55 86.55 34.55 Z"/>
</g>

<g id="Layer0_0_MEMBER_0_MEMBER_4_FILL">
<path fill="#8C8C8C" stroke="none" d="
M 57.5 75
Q 54.15 74.35 51.8 75.05 56.3 76.65 61.25 76.65
L 63.45 76.55
Q 59.5 75.4 57.5 75 Z"/>
</g>

<g id="Layer0_0_MEMBER_0_MEMBER_5_FILL">
<path fill="#9B9B9B" stroke="none" d="
M 71.85 71.4
Q 70.7 70.25 69.5 70.25 67.95 70.25 62.6 72.65 58.5 74.5 55.7 72.65 53.15 71.15 50.1 70.6 46.9 70.05 43.9 70.8 47.5 73.6 51.8 75.05 54.15 74.35 57.5 75 59.5 75.4 63.45 76.55 69.15 76.1 73.85 73.7 72 71.5 71.85 71.4 Z"/>
</g>

<g id="Layer0_0_MEMBER_0_MEMBER_6_FILL">
<path fill="#AAAAAA" stroke="none" d="
M 38.6 62.15
Q 37.15 61.9 36.25 62.1 39.05 67.15 43.9 70.8 46.9 70.05 50.1 70.6 53.15 71.15 55.7 72.65 58.5 74.5 62.6 72.65 67.95 70.25 69.5 70.25 70.7 70.25 71.85 71.4 72 71.5 73.85 73.7 82.5 69.55 86.8 61.05 84.65 61.8 80.1 65.4 75.75 68.9 73.55 69.45 71 69.9 66.45 67.85 62.05 65.85 60.55 66.2 49.85 67.25 49 67.2 42.8 66.9 38.6 62.15 Z"/>
</g>

<g id="Layer0_0_MEMBER_0_MEMBER_7_FILL">
<path fill="#B7B7B7" stroke="none" d="
M 89.55 52.85
Q 86.15 52.7 84.55 52.7 81.75 52.75 80.05 54.85 78.85 56.9 77 60.6 75.25 63.55 72.75 64.55 69.85 65.55 66.85 63.45 62.75 60.65 62.2 60.5 59.75 60 56 60.7 51.8 61.6 49.8 61.85 42.5 62.75 38.6 56.45 37.85 55.7 36.55 55.35 34.8 54.8 33.6 55.75 34.5 59.15 36.25 62.1 37.15 61.9 38.6 62.15 42.8 66.9 49 67.2 49.85 67.25 60.55 66.2 62.05 65.85 66.45 67.85 71 69.9 73.55 69.45 75.75 68.9 80.1 65.4 84.65 61.8 86.8 61.05 88.8 57.1 89.55 52.85 Z"/>
</g>

<g id="Layer0_0_MEMBER_0_MEMBER_8_FILL">
<path fill="#C1C1C1" stroke="none" d="
M 89.95 48
Q 89.95 45 89.2 41.5 86.4 42.1 85.1 42.45 82.85 43.15 81.7 44.3
L 77.45 49.8
Q 74.85 53.05 71.95 54.05 69.2 54.95 65.15 52.65 60.5 50 58.95 50 56.9 50 51 52.95 46 55.4 41.85 54.05 39.35 52.95 37.15 48.5 35.25 44.55 32.75 44.3 32.5 46.3 32.5 48 32.5 51.9 33.6 55.75 34.8 54.8 36.55 55.35 37.85 55.7 38.6 56.45 42.5 62.75 49.8 61.85 51.8 61.6 56 60.7 59.75 60 62.2 60.5 62.75 60.65 66.85 63.45 69.85 65.55 72.75 64.55 75.25 63.55 77 60.6 78.85 56.9 80.05 54.85 81.75 52.75 84.55 52.7 86.15 52.7 89.55 52.85 89.95 50.35 89.95 48 Z"/>
</g>

<g id="Layer0_0_MEMBER_0_MEMBER_9_FILL">
<path fill="#CCCCCC" stroke="none" d="
M 86.55 34.55
Q 85.45 35.55 84.15 36.2 82.75 36.75 77 35.1 72.5 33.8 71.1 37 68.2 44.6 60.05 46.35 52.35 47.95 45.95 43.5 41.7 40.1 40.35 39.35 36.8 37.35 34.15 38.6 33.2 41.2 32.75 44.3 35.25 44.55 37.15 48.5 39.35 52.95 41.85 54.05 46 55.4 51 52.95 56.9 50 58.95 50 60.5 50 65.15 52.65 69.2 54.95 71.95 54.05 74.85 53.05 77.45 49.8
L 81.7 44.3
Q 82.85 43.15 85.1 42.45 86.4 42.1 89.2 41.5 88.3 37.8 86.55 34.55 Z"/>
</g>

<g id="Layer0_0_MEMBER_1_FILL">
<path fill="#000000" fill-opacity="0.2" stroke="none" d="
M 271.5 178.3
Q 272.65 182.2 272.65 186.35 272.65 198.2 264.25 206.6 255.85 214.95 243.95 214.95 239.8 214.95 235.9 213.8 238.5 222.85 246.1 228.6 253.75 234.4 263.45 234.4 275.35 234.4 283.75 226.05 292.15 217.65 292.15 205.8 292.15 196.15 286.3 188.45 280.55 180.95 271.5 178.3 Z"/>
</g>

<g id="Layer0_0_MEMBER_2_FILL">
<path fill="#FFFFFF" fill-opacity="0.6980392156862745" stroke="none" d="
M 7.5 0.7
Q 6.85 -0.15 5.35 0.05 3.85 0.2 2.35 1.35 0.85 2.5 0.25 3.85 -0.3 5.25 0.35 6.1 1 6.95 2.5 6.75 4 6.6 5.5 5.45 6.95 4.3 7.55 2.95 8.15 1.55 7.5 0.7 Z"/>
</g>
</defs>

<g transform="matrix( 10, 0, 0, 10, -100.25,31.75) ">
<use xlink:href="#Layer0_0_MEMBER_0_MEMBER_0_FILL"/>
</g>

<g transform="matrix( 10, 0, 0, 10, -100.25,31.75) ">
<use xlink:href="#Layer0_0_MEMBER_0_MEMBER_1_FILL"/>
</g>

<g transform="matrix( 10, 0, 0, 10, -100.25,31.75) ">
<use xlink:href="#Layer0_0_MEMBER_0_MEMBER_2_FILL"/>
</g>

<g transform="matrix( 10, 0, 0, 10, -100.25,31.75) ">
<use xlink:href="#Layer0_0_MEMBER_0_MEMBER_3_FILL"/>
</g>

<g transform="matrix( 10, 0, 0, 10, -100.25,31.75) ">
<use xlink:href="#Layer0_0_MEMBER_0_MEMBER_4_FILL"/>
</g>

<g transform="matrix( 10, 0, 0, 10, -100.25,31.75) ">
<use xlink:href="#Layer0_0_MEMBER_0_MEMBER_5_FILL"/>
</g>

<g transform="matrix( 10, 0, 0, 10, -100.25,31.75) ">
<use xlink:href="#Layer0_0_MEMBER_0_MEMBER_6_FILL"/>
</g>

<g transform="matrix( 10, 0, 0, 10, -100.25,31.75) ">
<use xlink:href="#Layer0_0_MEMBER_0_MEMBER_7_FILL"/>
</g>

<g transform="matrix( 10, 0, 0, 10, -100.25,31.75) ">
<use xlink:href="#Layer0_0_MEMBER_0_MEMBER_8_FILL"/>
</g>

<g transform="matrix( 10, 0, 0, 10, -100.25,31.75) ">
<use xlink:href="#Layer0_0_MEMBER_0_MEMBER_9_FILL"/>
</g>

<g transform="matrix( 10, 0, 0, 10, -2122.25,-1545.75) ">
<use xlink:href="#Layer0_0_MEMBER_1_FILL"/>
</g>

<g transform="matrix( 10, 0, 0, 10, 352.25,293.25) ">
<use xlink:href="#Layer0_0_MEMBER_2_FILL"/>
</g>
</svg>
