<svg width="1000" height="800" xmlns="http://www.w3.org/2000/svg" xmlns:xlink="http://www.w3.org/1999/xlink">
 <g>
  <title>background</title>
  <rect fill="none" id="canvas_background" height="802" width="1002" y="-1" x="-1"/>
 </g>
 <g>
  <title>Layer 1</title>
  <g id="svg_1">
   <defs>
    <path d="m195.906,518.153c0,0 -40.465,-56.406 0,-142.241c0,0 -55.18,-63.763 -23.298,-114.038s148.279,-151.707 361.733,-52.727c0,0 95.645,55.18 148.372,100.549s67.442,-20.846 74.799,-33.108c0,0 79.704,20.846 23.298,84.609c0,0 -40.465,30.655 -96.871,0c0,0 30.564,80.93 117.058,55.18c0,0 20.278,36.786 -72.914,58.858c0,0 89.473,55.18 74.779,94.418c0,0 -61.29,-18.393 -74.779,0c0,0 38.013,12.262 53.953,45.37c0,0 -14.715,34.334 -28.203,67.442c0,0 -17.167,-53.953 -60.084,-56.406c0,0 -26.977,-2.452 -24.524,7.357c0,0 49.048,33.108 44.144,53.953c0,0 -45.37,41.691 -145.919,11.036c0,0 -6.131,141.014 42.917,212.135l-221.946,0c0,0 64.989,-212.135 -35.56,-180.253s-82.156,34.334 -104.228,17.167c-22.072,-17.167 -33.108,-92.318 -47.822,-132.431c0,0 -53.953,3.679 -53.953,-9.81s49.048,-87.06 49.048,-87.06z" id="XMLID_18_"/>
    <linearGradient y2="-0.05076" x2="0.495947" y1="0.604039" x1="0.500297" id="XMLID_2_">
     <stop stop-color="#FFCDD6" offset="0"/>
     <stop stop-color="#6D8DAF" offset="0.3975"/>
     <stop stop-color="#253A59" offset="1"/>
    </linearGradient>
    <linearGradient y2="1.059958" x2="0.459597" y1="0.196246" x1="0.512201" id="XMLID_4_">
     <stop stop-color="#E7A9B6" offset="0.3464"/>
     <stop stop-color="#DFA7B5" offset="0.3968"/>
     <stop stop-color="#CBA2B3" offset="0.5606"/>
     <stop stop-color="#BF9FB2" offset="0.7244"/>
     <stop stop-color="#BB9EB2" offset="0.887"/>
    </linearGradient>
    <linearGradient y2="1.068173" x2="0.467073" y1="0.22509" x1="0.532114" id="SVGID_1_">
     <stop stop-color="#E7A9B6" offset="0"/>
     <stop stop-color="#F0C2CC" offset="0.2045"/>
     <stop stop-color="#F7D6DE" offset="0.4326"/>
     <stop stop-color="#FCE2E8" offset="0.6606"/>
     <stop stop-color="#FDE6EC" offset="0.887"/>
    </linearGradient>
    <linearGradient y2="1.855697" x2="0.407769" y1="0.351228" x1="0.532515" id="XMLID_6_">
     <stop stop-color="#E7A9B6" offset="0"/>
     <stop stop-color="#DFA7B5" offset="0.0827"/>
     <stop stop-color="#CBA2B3" offset="0.3515"/>
     <stop stop-color="#BF9FB2" offset="0.6202"/>
     <stop stop-color="#BB9EB2" offset="0.887"/>
    </linearGradient>
    <linearGradient y2="1.961005" x2="0.393748" y1="0.364138" x1="0.530264" id="SVGID_2_">
     <stop stop-color="#E7A9B6" offset="0"/>
     <stop stop-color="#F0C2CC" offset="0.2045"/>
     <stop stop-color="#F7D6DE" offset="0.4326"/>
     <stop stop-color="#FCE2E8" offset="0.6606"/>
     <stop stop-color="#FDE6EC" offset="0.887"/>
    </linearGradient>
    <linearGradient y2="-0.050515" x2="0.493405" y1="0.60519" x1="0.497521" id="XMLID_8_">
     <stop stop-color="#FFCDD6" offset="0"/>
     <stop stop-color="#3B4A56" offset="0.6486"/>
    </linearGradient>
    <linearGradient y2="-0.03159" x2="0.501428" y1="0.925122" x1="0.468563" id="SVGID_3_">
     <stop stop-color="#E6FAFF" offset="0"/>
     <stop stop-color="#F3C6D3" offset="0.7014"/>
    </linearGradient>
    <linearGradient y2="0.169542" x2="0.496844" y1="0.825864" x1="0.500294" id="XMLID_10_">
     <stop stop-color="#FFCDD6" offset="0"/>
     <stop stop-color="#CCABB5" offset="0.0834"/>
     <stop stop-color="#A08E98" offset="0.1686"/>
     <stop stop-color="#7C7580" offset="0.2548"/>
     <stop stop-color="#5F626E" offset="0.3407"/>
     <stop stop-color="#4B5561" offset="0.4264"/>
     <stop stop-color="#3F4D59" offset="0.5118"/>
     <stop stop-color="#3B4A56" offset="0.5965"/>
    </linearGradient>
    <linearGradient y2="-0.036034" x2="0.516712" y1="0.867823" x1="0.498564" id="SVGID_4_">
     <stop stop-color="#E6FAFF" offset="0"/>
     <stop stop-color="#F3C6D3" offset="0.7014"/>
    </linearGradient>
    <linearGradient y2="0.106106" x2="0.496855" y1="0.945229" x1="0.500671" id="XMLID_12_">
     <stop stop-color="#FFCDD6" offset="0"/>
     <stop stop-color="#CCABB5" offset="0.0834"/>
     <stop stop-color="#A08E98" offset="0.1686"/>
     <stop stop-color="#7C7580" offset="0.2548"/>
     <stop stop-color="#5F626E" offset="0.3407"/>
     <stop stop-color="#4B5561" offset="0.4264"/>
     <stop stop-color="#3F4D59" offset="0.5118"/>
     <stop stop-color="#3B4A56" offset="0.5965"/>
    </linearGradient>
    <linearGradient y2="0.15845" x2="0.497637" y1="0.811445" x1="0.500429" id="SVGID_5_">
     <stop stop-color="#E6FAFF" offset="0"/>
     <stop stop-color="#F3C6D3" offset="0.7014"/>
    </linearGradient>
    <linearGradient y2="0.694664" x2="0.436666" y1="0.214996" x1="0.585751" id="SVGID_6_">
     <stop stop-color="#FFFAE6" stop-opacity="0.7" offset="0"/>
     <stop stop-color="#FFFCEF" stop-opacity="0.4696" offset="0.3209"/>
     <stop stop-color="#FFFFFF" stop-opacity="0" offset="0.9749"/>
    </linearGradient>
    <linearGradient y2="0.650791" x2="0.540333" y1="-0.108903" x1="0.264451" id="SVGID_7_">
     <stop stop-color="#FFFAE6" stop-opacity="0.7" offset="0"/>
     <stop stop-color="#FFFCEF" stop-opacity="0.4696" offset="0.3209"/>
     <stop stop-color="#FFFFFF" stop-opacity="0" offset="0.9749"/>
    </linearGradient>
    <linearGradient y2="1.132402" x2="0.384039" y1="0.010969" x1="0.580092" id="SVGID_8_">
     <stop stop-color="#FFFAE6" stop-opacity="0.7" offset="0"/>
     <stop stop-color="#FFFCEF" stop-opacity="0.4696" offset="0.1586"/>
     <stop stop-color="#FFFFFF" stop-opacity="0" offset="0.4818"/>
    </linearGradient>
    <linearGradient y2="0.47057" x2="0.469056" y1="0.015195" x1="0.140047" id="SVGID_9_">
     <stop stop-color="#FFFAE6" stop-opacity="0.7" offset="0.4017"/>
     <stop stop-color="#FFFCEF" stop-opacity="0.4696" offset="0.5986"/>
     <stop stop-color="#FFFFFF" stop-opacity="0" offset="1"/>
    </linearGradient>
    <radialGradient gradientUnits="userSpaceOnUse" r="112.1515" cy="368.1141" cx="363.5223" id="SVGID_10_">
     <stop stop-color="#FFFFFF" offset="0"/>
     <stop stop-color="#FFFFFF" stop-opacity="0" offset="1"/>
    </radialGradient>
    <linearGradient y2="0.134041" x2="0.866346" y1="0.826567" x1="0.160829" id="SVGID_11_">
     <stop stop-color="#FFC5D3" offset="0"/>
     <stop stop-color="#FFFFFF" stop-opacity="0" offset="1"/>
    </linearGradient>
    <linearGradient y2="0.133703" x2="0.866433" y1="0.826229" x1="0.160913" id="SVGID_12_">
     <stop stop-color="#FFC5D3" offset="0"/>
     <stop stop-color="#FFFFFF" stop-opacity="0" offset="1"/>
    </linearGradient>
    <linearGradient y2="0.135121" x2="0.865568" y1="0.821931" x1="0.162012" id="SVGID_13_">
     <stop stop-color="#FFC5D3" offset="0"/>
     <stop stop-color="#FFFFFF" stop-opacity="0" offset="1"/>
    </linearGradient>
    <linearGradient y2="0.134149" x2="0.866365" y1="0.826672" x1="0.160845" id="SVGID_14_">
     <stop stop-color="#FFC5D3" offset="0"/>
     <stop stop-color="#FFFFFF" stop-opacity="0" offset="1"/>
    </linearGradient>
   </defs>
   <use id="svg_2" fill="url(#XMLID_2_)" xlink:href="#XMLID_18_"/>
   <clipPath id="XMLID_3_">
    <use id="svg_3" xlink:href="#XMLID_18_"/>
   </clipPath>
   <g id="svg_4" clip-path="url(#XMLID_3_)">
    <defs>
     <polygon points="310.309,600.344 441.685,600.344 500.431,546.939 582.674,640.932 533.542,732.789      322.763,719.897    " id="XMLID_54_"/>
    </defs>
    <use id="svg_5" fill="url(#XMLID_4_)" xlink:href="#XMLID_54_"/>
    <clipPath id="XMLID_5_">
     <use id="svg_6" xlink:href="#XMLID_54_"/>
    </clipPath>
    <polygon id="svg_7" clip-path="url(#XMLID_5_)" fill="url(#SVGID_1_)" points="446.492,563.154 468.388,594.128 481.205,591.992     489.75,603.741 501.499,608.014 513.248,586.993 552.768,586.993 492.954,516.157   "/>
   </g>
   <g id="svg_8" clip-path="url(#XMLID_3_)">
    <defs>
     <polygon points="673.943,579.971 731.62,506.886 830.251,657.035    " id="XMLID_55_"/>
    </defs>
    <use id="svg_9" fill="url(#XMLID_6_)" xlink:href="#XMLID_55_"/>
    <clipPath id="XMLID_7_">
     <use id="svg_10" xlink:href="#XMLID_55_"/>
    </clipPath>
    <polygon id="svg_11" clip-path="url(#XMLID_7_)" fill="url(#SVGID_2_)" points="695.305,531.645 728.416,546.939 743.369,546.939     771.14,519.896 729.484,471.831   "/>
   </g>
   <g id="svg_12" clip-path="url(#XMLID_3_)">
    <defs>
     <polygon points="390.534,727.659 446.006,664.535 528.259,727.659 575.011,892.165 361.841,892.165    " id="XMLID_28_"/>
    </defs>
    <use id="svg_13" fill="url(#XMLID_8_)" xlink:href="#XMLID_28_"/>
    <clipPath id="XMLID_9_">
     <use id="svg_14" xlink:href="#XMLID_28_"/>
    </clipPath>
    <polygon id="svg_15" clip-path="url(#XMLID_9_)" fill="url(#SVGID_3_)" points="375.241,622.144 454.37,726.887 554.681,620.008   "/>
   </g>
   <g id="svg_16" clip-path="url(#XMLID_3_)">
    <defs>
     <polygon points="107.431,714.269 258.547,505.554 539.736,892.165 197.59,850.082    " id="XMLID_40_"/>
    </defs>
    <use id="svg_17" fill="url(#XMLID_10_)" xlink:href="#XMLID_40_"/>
    <clipPath id="XMLID_11_">
     <use id="svg_18" xlink:href="#XMLID_40_"/>
    </clipPath>
    <polygon id="svg_19" clip-path="url(#XMLID_11_)" fill="url(#SVGID_4_)" points="92.55,602.918 230.691,575.375 259.174,631.401     279.112,594.373 329.698,662.732 334.267,634.249 389.571,641.113 273.415,462.878   "/>
   </g>
   <g id="svg_20" clip-path="url(#XMLID_3_)">
    <defs>
     <polygon points="495.74,735.311 662.159,505.554 920.394,769.742 667.897,949.55 346.538,949.55    " id="XMLID_41_"/>
    </defs>
    <use id="svg_21" fill="url(#XMLID_12_)" xlink:href="#XMLID_41_"/>
    <clipPath id="XMLID_13_">
     <use id="svg_22" xlink:href="#XMLID_41_"/>
    </clipPath>
    <polygon id="svg_23" clip-path="url(#XMLID_13_)" fill="url(#SVGID_5_)" points="533.319,598.646 625.176,594.373 637.993,647.778     659.355,590.101 676.445,585.828 699.943,609.327 702.079,575.375 787.527,590.101 663.627,462.878   "/>
   </g>
   <path id="svg_24" clip-path="url(#XMLID_3_)" fill="url(#SVGID_6_)" d="m145.772,393.207c29.394,0 53.222,23.828 53.222,53.222c0,2.198 -0.149,4.361 -0.408,6.489c3.499,-0.864 7.155,-1.331 10.921,-1.331c9.881,0 19.017,3.167 26.47,8.528c9.336,-4.9 19.956,-7.687 31.232,-7.687c24.842,0 46.526,13.467 58.19,33.489c4.783,-3.524 10.69,-5.61 17.086,-5.61c12.556,0 23.233,8.027 27.192,19.228c3.395,-0.613 6.887,-0.951 10.459,-0.951c32.297,0 58.478,26.182 58.478,58.478c0,32.297 -26.182,58.479 -58.478,58.479c-31.57,0 -57.282,-25.021 -58.424,-56.311c-12.234,16.857 -32.082,27.829 -54.503,27.829c-29.378,0 -54.345,-18.827 -63.534,-45.068c-22.314,-2.864 -39.562,-21.916 -39.562,-45.008c0,-0.195 0.012,-0.387 0.015,-0.581c-5.722,2.102 -11.904,3.251 -18.355,3.251c-29.394,0 -53.222,-23.828 -53.222,-53.222c-0.001,-29.396 23.828,-53.224 53.221,-53.224z"/>
   <path id="svg_25" clip-path="url(#XMLID_3_)" fill="url(#SVGID_7_)" d="m535.341,380.472c9.865,-4.686 20.785,-4.49 30.049,-0.4c3.287,-15.137 13.293,-28.642 28.366,-35.803c8.343,-3.963 17.211,-5.485 25.811,-4.876c2.859,-11.291 10.542,-21.27 21.884,-26.658c3.412,-1.621 6.937,-2.711 10.486,-3.325c2.702,-17.334 13.646,-33.075 30.687,-41.17c27.379,-13.006 60.117,-1.354 73.122,26.025c13.006,27.379 1.354,60.116 -26.025,73.122c-11.928,5.666 -24.873,6.649 -36.76,3.693c-3.949,6.205 -9.627,11.415 -16.762,14.804c-2.78,1.321 -5.636,2.284 -8.518,2.933c0.846,20.126 -10.17,39.758 -29.513,48.946c-18.998,9.024 -40.722,5.447 -55.766,-7.353c-3.519,6.413 -9.007,11.822 -16.119,15.2c-17.988,8.545 -39.497,0.889 -48.042,-17.099s-0.888,-39.495 17.1,-48.039z"/>
   <path id="svg_26" clip-path="url(#XMLID_3_)" fill="url(#SVGID_8_)" d="m216.892,356.951c19.964,0 36.995,12.518 43.697,30.13c4.241,-2.356 9.119,-3.702 14.314,-3.702c8.446,0 16.057,3.552 21.438,9.237c6.79,-4.325 14.844,-6.841 23.491,-6.841c12.294,0 23.397,5.072 31.352,13.229c9.718,-7.539 21.918,-12.029 35.169,-12.029c31.718,0 57.431,25.713 57.431,57.431c0,31.718 -25.713,57.431 -57.431,57.431c-22.291,0 -41.615,-12.699 -51.133,-31.257c-4.788,1.798 -9.971,2.787 -15.388,2.787c-19.769,0 -36.473,-13.101 -41.918,-31.093c-0.99,0.1 -1.995,0.152 -3.011,0.152c-8.533,0 -16.215,-3.624 -21.605,-9.412c-8.569,10.629 -21.69,17.435 -36.406,17.435c-25.819,0 -46.749,-20.93 -46.749,-46.749c-0.001,-25.818 20.93,-46.749 46.749,-46.749z"/>
   <path id="svg_27" clip-path="url(#XMLID_3_)" fill="url(#SVGID_9_)" d="m615.988,463.568c4.003,0 7.925,0.37 11.738,1.073c8.017,-35.491 38.148,-61.877 74.1,-61.877c42.082,0 76.195,36.148 76.195,80.739c0,44.591 -34.114,80.739 -76.195,80.739c-7.704,0 -15.14,-1.216 -22.15,-3.47c-9.638,27.351 -34.515,46.829 -63.688,46.829c-37.536,0 -67.964,-32.243 -67.964,-72.017s30.429,-72.016 67.964,-72.016z"/>
   <circle id="svg_28" clip-path="url(#XMLID_3_)" fill="url(#SVGID_10_)" r="112.152" cy="368.114" cx="363.522"/>
   <circle id="svg_29" clip-path="url(#XMLID_3_)" fill="#FFFFFF" r="90.848" cy="368.114" cx="363.522"/>
   <circle id="svg_30" clip-path="url(#XMLID_3_)" fill="#EFF0E2" r="18.158" cy="361.528" cx="298.723"/>
   <circle id="svg_31" clip-path="url(#XMLID_3_)" fill="#EFF0E2" r="10.889" cy="378.825" cx="337.649"/>
   <circle id="svg_32" clip-path="url(#XMLID_3_)" fill="#EFF0E2" r="13.677" cy="422.201" cx="340.202"/>
   <path id="svg_33" clip-path="url(#XMLID_3_)" fill="url(#SVGID_11_)" d="m464.694,265.057l0,0c-1.299,-1.958 -0.759,-4.623 1.2,-5.922l136.708,-87.231c1.958,-1.299 3.729,1.372 1.771,2.671l-133.757,91.682c-1.958,1.298 -4.623,0.758 -5.922,-1.2z"/>
   <path id="svg_34" clip-path="url(#XMLID_3_)" fill="url(#SVGID_12_)" d="m224.021,274.532l0,0c-0.8,-1.207 -0.467,-2.849 0.739,-3.649l84.23,-53.746c1.207,-0.8 2.298,0.845 1.091,1.645l-82.411,56.488c-1.207,0.801 -2.849,0.468 -3.649,-0.738z"/>
   <path id="svg_35" clip-path="url(#XMLID_3_)" fill="url(#SVGID_13_)" d="m646.016,344.945l0,0c-0.701,-1.057 -0.554,-2.4 0.327,-2.984l61.63,-39.021c0.881,-0.584 1.837,0.858 0.956,1.442l-60.037,41.424c-0.881,0.583 -2.175,0.196 -2.876,-0.861z"/>
   <path id="svg_36" clip-path="url(#XMLID_3_)" fill="url(#SVGID_14_)" d="m345.264,546.457l0,0c-2.12,-3.197 -1.239,-7.547 1.958,-9.667l223.161,-142.396c3.197,-2.12 6.088,2.24 2.891,4.359l-218.343,149.663c-3.197,2.119 -7.547,1.238 -9.667,-1.959z"/>
   <g id="svg_37" clip-path="url(#XMLID_3_)">
    <circle id="svg_38" fill="#FFFFFF" r="1.411" cy="215.007" cx="354.55"/>
    <circle id="svg_39" fill="#FFFFFF" r="2.301" cy="574.601" cx="574.665"/>
    <circle id="svg_40" fill="#FFFFFF" r="2.301" cy="574.601" cx="375.431"/>
    <circle id="svg_41" opacity="0.46" fill="#FFFFFF" r="2.864" cy="497.633" cx="223.585"/>
    <circle id="svg_42" fill="#FFFFFF" r="2.139" cy="541.049" cx="771.936"/>
    <circle id="svg_43" fill="#FFFFFF" r="1.009" cy="408.524" cx="511.599"/>
    <circle id="svg_44" fill="#FFFFFF" r="2.219" cy="266.964" cx="292.973"/>
    <circle id="svg_45" fill="#FFFFFF" r="1.641" cy="198.87" cx="272.675"/>
    <circle id="svg_46" fill="#FFFFFF" r="0.561" cy="256.523" cx="418.636"/>
    <circle id="svg_47" opacity="0.47" fill="#FFFFFF" r="3.072" cy="204.566" cx="433.488"/>
    <circle id="svg_48" fill="#FFFFFF" r="1.963" cy="432.642" cx="740.614"/>
    <circle id="svg_49" fill="#FFFFFF" r="1.063" cy="541.049" cx="454.37"/>
    <circle id="svg_50" fill="#FFFFFF" r="1.527" cy="361.528" cx="475.674"/>
    <circle id="svg_51" fill="#FFFFFF" r="0.416" cy="324.44" cx="761.496"/>
    <circle id="svg_52" fill="#FFFFFF" r="1.424" cy="297.442" cx="600.61"/>
    <circle id="svg_53" fill="#FFFFFF" r="1.235" cy="508.074" cx="558.126"/>
    <circle id="svg_54" fill="#FFFFFF" r="0.86" cy="497.633" cx="334.267"/>
    <circle id="svg_55" fill="#FFFFFF" r="1.394" cy="422.201" cx="227.843"/>
    <circle id="svg_56" opacity="0.38" fill="#FFFFFF" r="3.236" cy="446.319" cx="615.665"/>
    <circle id="svg_57" fill="#FFFFFF" r="2.219" cy="266.964" cx="511.599"/>
    <circle id="svg_58" opacity="0.64" fill="#FFFFFF" r="2.589" cy="361.528" cx="585.106"/>
    <circle id="svg_59" fill="#FFFFFF" r="2.599" cy="313.999" cx="234.026"/>
   </g>
  </g>
 </g>
</svg>