
<svg xmlns="http://www.w3.org/2000/svg" version="1.1" xmlns:xlink="http://www.w3.org/1999/xlink" preserveAspectRatio="none" x="0px" y="0px" width="1024px" height="1024px" viewBox="0 0 1024 1024">
<defs>
<g id="Layer0_0_MEMBER_0_FILL">
<path fill="#F11822" stroke="none" d="
M 418.45 21.9
Q 418.45 20.3 417.35 19.2 416.2 18.05 414.6 18.05 413.05 18.05 411.9 19.2 410.75 20.35 410.75 21.9 410.75 23.5 411.9 24.65 413 25.75 414.6 25.75 416.2 25.75 417.35 24.65 418.45 23.5 418.45 21.9 Z"/>
</g>

<g id="Layer0_0_MEMBER_1_FILL">
<path fill="#FFFFFF" fill-opacity="0.6980392156862745" stroke="none" d="
M 1 0.5
Q 1 0 0.5 0 0 0 0 0.5 0 1.05 0.5 1.05 1 1.05 1 0.5 Z"/>
</g>

<g id="Layer0_0_MEMBER_2_FILL">
<path fill="#000000" fill-opacity="0.2" stroke="none" d="
M 6.65 3.75
Q 6.65 2.4 5.85 1.35 5.05 0.35 3.8 0 4.85 1.15 4.85 2.65 4.85 4.25 3.7 5.4 2.6 6.5 1 6.5
L 0 6.4
Q 1.2 7.6 2.8 7.6 4.4 7.6 5.55 6.45 6.65 5.35 6.65 3.75 Z"/>
</g>

<g id="Layer0_0_MEMBER_3_FILL">
<path fill="#FD9E43" stroke="none" d="
M 426.15 33.2
Q 426.15 31.2 424.7 29.8 423.3 28.35 421.3 28.35 419.3 28.35 417.85 29.8 416.45 31.2 416.45 33.2 416.45 35.25 417.85 36.65 419.3 38.05 421.3 38.05 423.3 38.05 424.7 36.65 426.15 35.2 426.15 33.2 Z"/>
</g>

<g id="Layer0_0_MEMBER_4_FILL">
<path fill="#000000" fill-opacity="0.2" stroke="none" d="
M 8.4 4.75
Q 8.4 3.05 7.35 1.7 6.35 0.4 4.75 0 6.1 1.5 6.1 3.35 6.1 5.4 4.65 6.8 3.25 8.25 1.2 8.25 0.6 8.25 0 8.1 1.5 9.6 3.5 9.6 5.5 9.6 6.95 8.15 8.4 6.75 8.4 4.75 Z"/>
</g>

<g id="Layer0_0_MEMBER_5_MEMBER_0_FILL">
<path fill="#FDB63B" stroke="none" d="
M 387.1 25.85
Q 394.4 25.8 399.85 23.35 397.45 22.2 394.5 21.5 389.25 23.75 381.6 21.4 377.3 22.4 373.6 24.5 381.55 25.9 387.1 25.85 Z"/>
</g>

<g id="Layer0_0_MEMBER_5_MEMBER_1_FILL">
<path fill="#FDC133" stroke="none" d="
M 381.6 21.4
Q 389.25 23.75 394.5 21.5 391.15 20.7 387.85 20.7 384.7 20.7 381.6 21.4 Z"/>
</g>

<g id="Layer0_0_MEMBER_5_MEMBER_2_FILL">
<path fill="#FD9E43" stroke="none" d="
M 383.8 31.3
Q 391.9 31.3 399.5 28.15 402.55 27.15 404.55 26.1 402.3 24.45 399.85 23.35 394.4 25.8 387.1 25.85 381.55 25.9 373.6 24.5 371 25.95 368.4 28.3 376.05 31.25 383.8 31.3 Z"/>
</g>

<g id="Layer0_0_MEMBER_5_MEMBER_3_FILL">
<path fill="#F78338" stroke="none" d="
M 410.55 31.85
Q 409.75 30.75 408.75 29.75 406.85 31.75 404 33.1 401.45 34.3 398.7 34.7 389.35 37.2 381.7 36.4 372.6 35.45 366.8 29.9 364.85 31.95 363.15 34.75 375.75 40.5 388.35 40.55 403.3 40.6 410.55 31.85 Z"/>
</g>

<g id="Layer0_0_MEMBER_5_MEMBER_4_FILL">
<path fill="#FC6A2A" stroke="none" d="
M 414.9 39.7
Q 411.2 42.2 406.85 42.85 378.65 49.85 361.8 37.35 360.4 40.3 359.7 43.7 372.75 49.9 388.2 49.55 404.15 49.2 415.6 41.9
L 414.9 39.7 Z"/>
</g>

<g id="Layer0_0_MEMBER_5_MEMBER_5_FILL">
<path fill="#E71820" stroke="none" d="
M 414.9 59.25
Q 416 56.3 416.35 53.35 405.35 61.45 388.4 61.45 372.95 61.4 359.65 55.05 360.5 59.3 362.45 63 374.9 67.45 389 66.4 402.9 65.4 414.9 59.25 Z"/>
</g>

<g id="Layer0_0_MEMBER_5_MEMBER_6_FILL">
<path fill="#CC121A" stroke="none" d="
M 397.9 72.15
Q 400.9 73.25 404.3 73.1 407.6 70.8 410.05 67.75 401.75 70.5 387.4 68.75 371.35 66.15 364.1 65.7 365.55 67.8 367.5 69.75 371.2 70.3 383 70.3 392.45 70.35 397.9 72.15 Z"/>
</g>

<g id="Layer0_0_MEMBER_5_MEMBER_7_FILL">
<path fill="#BD1119" stroke="none" d="
M 385.8 71.8
Q 392.8 72.5 400.6 75.3 402.4 74.35 404.3 73.1 400.9 73.25 397.9 72.15 392.45 70.35 383 70.3 371.2 70.3 367.5 69.75 369.3 71.6 371.6 73.2 377.55 70.95 385.8 71.8 Z"/>
</g>

<g id="Layer0_0_MEMBER_5_MEMBER_8_FILL">
<path fill="#74120B" stroke="none" d="
M 390.5 78.1
Q 386.4 76.1 383.45 77.9 385.9 78.25 387.85 78.25 389.25 78.25 390.5 78.1 Z"/>
</g>

<g id="Layer0_0_MEMBER_5_MEMBER_9_FILL">
<path fill="#851310" stroke="none" d="
M 387.7 74.65
Q 382.55 74.6 377.95 76.45 380.65 77.45 383.45 77.9 386.4 76.1 390.5 78.1 393.95 77.8 397.25 76.65 392.95 74.65 387.7 74.65 Z"/>
</g>

<g id="Layer0_0_MEMBER_5_MEMBER_10_FILL">
<path fill="#A11616" stroke="none" d="
M 385.8 71.8
Q 377.55 70.95 371.6 73.2 374.55 75.25 377.95 76.45 382.55 74.6 387.7 74.65 392.95 74.65 397.25 76.65 398.85 76.1 400.6 75.3 392.8 72.5 385.8 71.8 Z"/>
</g>

<g id="Layer0_0_MEMBER_5_MEMBER_11_FILL">
<path fill="#DD1820" stroke="none" d="
M 410.05 67.75
Q 413.3 63.8 414.9 59.25 402.9 65.4 389 66.4 374.9 67.45 362.45 63 363.2 64.45 364.1 65.7 371.35 66.15 387.4 68.75 401.75 70.5 410.05 67.75 Z"/>
</g>

<g id="Layer0_0_MEMBER_5_MEMBER_12_FILL">
<path fill="#F11822" stroke="none" d="
M 416.35 53.35
Q 416.6 51.8 416.6 49.5
L 416.55 47.35
Q 402.3 55.55 387.55 57.2 370.35 59.15 359.1 50.85 359.25 53.35 359.65 55.05 372.95 61.4 388.4 61.45 405.35 61.45 416.35 53.35 Z"/>
</g>

<g id="Layer0_0_MEMBER_5_MEMBER_13_FILL">
<path fill="#FC1A23" stroke="none" d="
M 416.55 47.35
L 416.35 45.5
Q 404.55 53.4 387.65 53.3 370.9 53.15 359.4 45.3 359.1 47.35 359.1 49.5
L 359.1 50.85
Q 370.35 59.15 387.55 57.2 402.3 55.55 416.55 47.35 Z"/>
</g>

<g id="Layer0_0_MEMBER_5_MEMBER_14_FILL">
<path fill="#FC4927" stroke="none" d="
M 416.35 45.5
Q 416 43.5 415.6 41.9 404.15 49.2 388.2 49.55 372.75 49.9 359.7 43.7
L 359.4 45.3
Q 370.9 53.15 387.65 53.3 404.55 53.4 416.35 45.5 Z"/>
</g>

<g id="Layer0_0_MEMBER_5_MEMBER_15_FILL">
<path fill="#FA6F36" stroke="none" d="
M 414.9 39.7
Q 413.3 35.35 410.55 31.85 403.3 40.6 388.35 40.55 375.75 40.5 363.15 34.75 362.35 36.1 361.8 37.35 378.65 49.85 406.85 42.85 411.2 42.2 414.9 39.7 Z"/>
</g>

<g id="Layer0_0_MEMBER_5_MEMBER_16_FILL">
<path fill="#FD9935" stroke="none" d="
M 381.7 36.4
Q 389.35 37.2 398.7 34.7 401.45 34.3 404 33.1 406.85 31.75 408.75 29.75 406.5 27.45 404.55 26.1 402.55 27.15 399.5 28.15 391.9 31.3 383.8 31.3 376.05 31.25 368.4 28.3
L 366.8 29.9
Q 372.6 35.45 381.7 36.4 Z"/>
</g>

<g id="Layer0_0_MEMBER_6_FILL">
<path fill="#000000" fill-opacity="0.2" stroke="none" d="
M 408.2 69.8
Q 416.6 61.4 416.6 49.5 416.6 39.8 410.75 32.1 405 24.5 395.95 21.85 397.1 26.1 397.1 29.95 397.1 41.85 388.65 50.3 380.25 58.7 368.3 58.7 364.15 58.7 360.25 57.55 362.9 66.65 370.45 72.4 378.15 78.25 387.85 78.25 399.75 78.25 408.2 69.8 Z"/>
</g>

<g id="Layer0_0_MEMBER_7_FILL">
<path fill="#FFFFFF" fill-opacity="0.6980392156862745" stroke="none" d="
M 7.5 0.7
Q 6.85 -0.15 5.35 0.05 3.8 0.25 2.35 1.35 0.85 2.45 0.25 3.9 -0.35 5.3 0.3 6.15 1 7 2.5 6.8 4 6.65 5.45 5.5 6.95 4.4 7.55 2.95 8.15 1.55 7.5 0.7 Z"/>
</g>

<g id="Layer0_0_MEMBER_8_FILL">
<path fill="#FFFFFF" fill-opacity="0.6980392156862745" stroke="none" d="
M 420.7 31.3
Q 420.7 30.7 420.1 30.7 419.5 30.7 419.5 31.3 419.5 31.95 420.1 31.95 420.7 31.95 420.7 31.3 Z"/>
</g>
</defs>

<g transform="matrix( 10, 0, 0, 10, -3372.4,25.85) ">
<use xlink:href="#Layer0_0_MEMBER_0_FILL"/>
</g>

<g transform="matrix( 10, 0, 0, 10, 759.6,221.85) ">
<use xlink:href="#Layer0_0_MEMBER_1_FILL"/>
</g>

<g transform="matrix( 10, 0, 0, 10, 746.6,207.85) ">
<use xlink:href="#Layer0_0_MEMBER_2_FILL"/>
</g>

<g transform="matrix( 10, 0, 0, 10, -3372.4,25.85) ">
<use xlink:href="#Layer0_0_MEMBER_3_FILL"/>
</g>

<g transform="matrix( 10, 0, 0, 10, 805.1,310.85) ">
<use xlink:href="#Layer0_0_MEMBER_4_FILL"/>
</g>

<g transform="matrix( 10, 0, 0, 10, -3372.4,25.85) ">
<use xlink:href="#Layer0_0_MEMBER_5_MEMBER_0_FILL"/>
</g>

<g transform="matrix( 10, 0, 0, 10, -3372.4,25.85) ">
<use xlink:href="#Layer0_0_MEMBER_5_MEMBER_1_FILL"/>
</g>

<g transform="matrix( 10, 0, 0, 10, -3372.4,25.85) ">
<use xlink:href="#Layer0_0_MEMBER_5_MEMBER_2_FILL"/>
</g>

<g transform="matrix( 10, 0, 0, 10, -3372.4,25.85) ">
<use xlink:href="#Layer0_0_MEMBER_5_MEMBER_3_FILL"/>
</g>

<g transform="matrix( 10, 0, 0, 10, -3372.4,25.85) ">
<use xlink:href="#Layer0_0_MEMBER_5_MEMBER_4_FILL"/>
</g>

<g transform="matrix( 10, 0, 0, 10, -3372.4,25.85) ">
<use xlink:href="#Layer0_0_MEMBER_5_MEMBER_5_FILL"/>
</g>

<g transform="matrix( 10, 0, 0, 10, -3372.4,25.85) ">
<use xlink:href="#Layer0_0_MEMBER_5_MEMBER_6_FILL"/>
</g>

<g transform="matrix( 10, 0, 0, 10, -3372.4,25.85) ">
<use xlink:href="#Layer0_0_MEMBER_5_MEMBER_7_FILL"/>
</g>

<g transform="matrix( 10, 0, 0, 10, -3372.4,25.85) ">
<use xlink:href="#Layer0_0_MEMBER_5_MEMBER_8_FILL"/>
</g>

<g transform="matrix( 10, 0, 0, 10, -3372.4,25.85) ">
<use xlink:href="#Layer0_0_MEMBER_5_MEMBER_9_FILL"/>
</g>

<g transform="matrix( 10, 0, 0, 10, -3372.4,25.85) ">
<use xlink:href="#Layer0_0_MEMBER_5_MEMBER_10_FILL"/>
</g>

<g transform="matrix( 10, 0, 0, 10, -3372.4,25.85) ">
<use xlink:href="#Layer0_0_MEMBER_5_MEMBER_11_FILL"/>
</g>

<g transform="matrix( 10, 0, 0, 10, -3372.4,25.85) ">
<use xlink:href="#Layer0_0_MEMBER_5_MEMBER_12_FILL"/>
</g>

<g transform="matrix( 10, 0, 0, 10, -3372.4,25.85) ">
<use xlink:href="#Layer0_0_MEMBER_5_MEMBER_13_FILL"/>
</g>

<g transform="matrix( 10, 0, 0, 10, -3372.4,25.85) ">
<use xlink:href="#Layer0_0_MEMBER_5_MEMBER_14_FILL"/>
</g>

<g transform="matrix( 10, 0, 0, 10, -3372.4,25.85) ">
<use xlink:href="#Layer0_0_MEMBER_5_MEMBER_15_FILL"/>
</g>

<g transform="matrix( 10, 0, 0, 10, -3372.4,25.85) ">
<use xlink:href="#Layer0_0_MEMBER_5_MEMBER_16_FILL"/>
</g>

<g transform="matrix( 10, 0, 0, 10, -3372.4,25.85) ">
<use xlink:href="#Layer0_0_MEMBER_6_FILL"/>
</g>

<g transform="matrix( 10, 0, 0, 10, 344.1,297.35) ">
<use xlink:href="#Layer0_0_MEMBER_7_FILL"/>
</g>

<g transform="matrix( 10, 0, 0, 10, -3372.4,25.85) ">
<use xlink:href="#Layer0_0_MEMBER_8_FILL"/>
</g>
</svg>
