<?xml version="1.0" encoding="utf-8"?>
<!-- Generator: Adobe Illustrator 25.0.0, SVG Export Plug-In . SVG Version: 6.00 Build 0)  -->
<svg version="1.1" id="图层_1" xmlns="http://www.w3.org/2000/svg" xmlns:xlink="http://www.w3.org/1999/xlink" x="0px" y="0px"
	 viewBox="0 0 400 400" style="enable-background:new 0 0 400 400;" xml:space="preserve">
<style type="text/css">
	.st0{fill:#F4F1EC;}
	.st1{fill:#3D3D63;}
	.st2{fill:#D7DADD;}
	.st3{fill:#9F9F9F;}
	.st4{fill:#B6BDC6;}
	.st5{fill:#FFFFFF;}
	.st6{fill:#F6716F;}
	.st7{fill:#B5C1CC;}
</style>
<g>
	<path id="路径_1912_1_" class="st0" d="M313.37,47.45c-33.25,0-196.86-0.14-196.86-0.14c-15.63,0-28.3,12.67-28.3,28.3
		c0,0,0,0,0,0v249.73c0,15.63,12.67,28.3,28.3,28.3c0,0,0,0,0,0h133c15.63,0,28.3-12.67,28.3-28.3V79.95"/>
	<path class="st1" d="M249.51,361.07h-133c-9.54,0-18.52-3.72-25.27-10.47c-6.75-6.75-10.46-15.72-10.46-25.26V75.61
		c0-19.7,16.03-35.73,35.73-35.73c1.64,0,163.99,0.14,196.86,0.14v14.86c-32.87,0-195.23-0.14-196.87-0.14
		c-11.5,0-20.86,9.36-20.86,20.87v249.73c0,5.57,2.17,10.81,6.11,14.76c3.94,3.94,9.18,6.11,14.75,6.11h133
		c11.5,0,20.86-9.36,20.86-20.87V79.95h14.86v245.39C285.24,345.04,269.21,361.07,249.51,361.07z"/>
</g>
<g id="矩形_1154" transform="translate(576 50)">
	<path class="st2" d="M-261.49-9.99L-261.49-9.99c24.42,0,44.22,19.8,44.22,44.22V135.8c0,8.14-6.6,14.74-14.74,14.74h-58.96
		c-8.14,0-14.74-6.6-14.74-14.74V34.23C-305.71,9.81-285.91-9.99-261.49-9.99z"/>
	<path class="st1" d="M-232.06,150.54h-58.86c-8.15,0-14.79-6.63-14.79-14.79V34.23c0-24.38,19.84-44.22,44.22-44.22
		s44.22,19.84,44.22,44.22v101.52C-217.27,143.91-223.9,150.54-232.06,150.54z M-290.84,135.68h58.71V34.23
		c0-16.19-13.17-29.36-29.36-29.36s-29.36,13.17-29.36,29.36V135.68z"/>
</g>
<g>
	<path id="路径_1921_1_" class="st3" d="M191.3,97.02h56.19"/>
	<path class="st1" d="M247.49,102.97H191.3c-3.28,0-5.95-2.66-5.95-5.95c0-3.28,2.66-5.95,5.95-5.95h56.19
		c3.28,0,5.95,2.66,5.95,5.95C253.43,100.3,250.77,102.97,247.49,102.97z"/>
</g>
<g>
	<path id="路径_1924_1_" class="st3" d="M119.08,174.53h128.4"/>
	<path class="st4" d="M247.49,180.47h-128.4c-3.28,0-5.95-2.66-5.95-5.95s2.66-5.95,5.95-5.95h128.4c3.28,0,5.95,2.66,5.95,5.95
		S250.77,180.47,247.49,180.47z"/>
</g>
<g>
	<path id="路径_1925_1_" class="st3" d="M119.08,233.24h128.4"/>
	<path class="st4" d="M247.49,239.19h-128.4c-3.28,0-5.95-2.66-5.95-5.95s2.66-5.95,5.95-5.95h128.4c3.28,0,5.95,2.66,5.95,5.95
		S250.77,239.19,247.49,239.19z"/>
</g>
<g>
	<path id="路径_1922_1_" class="st3" d="M191.3,123.03h56.19"/>
	<path class="st1" d="M247.49,128.98H191.3c-3.28,0-5.95-2.66-5.95-5.95s2.66-5.95,5.95-5.95h56.19c3.28,0,5.95,2.66,5.95,5.95
		S250.77,128.98,247.49,128.98z"/>
</g>
<g>
	<path id="路径_1923_1_" class="st3" d="M119.08,200.54h128.4"/>
	<path class="st4" d="M247.49,206.49h-128.4c-3.28,0-5.95-2.66-5.95-5.95c0-3.28,2.66-5.95,5.95-5.95h128.4
		c3.28,0,5.95,2.66,5.95,5.95C253.43,203.82,250.77,206.49,247.49,206.49z"/>
</g>
<g>
	<path id="路径_1926_1_" class="st3" d="M119.08,259.25h128.4"/>
	<path class="st4" d="M247.49,265.2h-128.4c-3.28,0-5.95-2.66-5.95-5.95c0-3.28,2.66-5.95,5.95-5.95h128.4
		c3.28,0,5.95,2.66,5.95,5.95C253.43,262.53,250.77,265.2,247.49,265.2z"/>
</g>
<g id="椭圆_420" transform="translate(364 179) rotate(-90)">
	<circle class="st5" cx="71.36" cy="-223.02" r="28.24"/>
	<path class="st1" d="M43.12-223.02c0-15.57,12.67-28.24,28.24-28.24s28.24,12.67,28.24,28.24s-12.67,28.24-28.24,28.24
		S43.12-207.45,43.12-223.02z M92.17-223.02c0-11.47-9.34-20.81-20.81-20.81s-20.81,9.34-20.81,20.81
		c0,11.47,9.34,20.81,20.81,20.81S92.17-211.55,92.17-223.02z"/>
</g>
<g id="椭圆_421" transform="translate(386.579 124.556)">
	<ellipse class="st5" cx="-245.4" cy="-17.47" rx="11.66" ry="11.66"/>
	<path class="st1" d="M-245.4-5.81c-6.43,0-11.66-5.23-11.66-11.66s5.23-11.66,11.66-11.66c6.43,0,11.66,5.23,11.66,11.66
		S-238.97-5.81-245.4-5.81z M-245.4-21.7c-2.33,0-4.23,1.9-4.23,4.23s1.9,4.23,4.23,4.23s4.23-1.9,4.23-4.23
		S-243.06-21.7-245.4-21.7z"/>
</g>
<g id="组_859" transform="translate(389.297 145.726) rotate(19)">
	<path class="st1" d="M-253.76,69.12c-0.38,0.13-0.79,0.2-1.21,0.2c-2.05,0-3.72-1.66-3.72-3.71c0-3.83,1.18-7.5,3.43-10.61
		c2.83-3.92,7.02-6.5,11.79-7.26c4.77-0.77,9.56,0.37,13.47,3.2c1.66,1.2,2.04,3.53,0.83,5.19c-1.2,1.66-3.52,2.04-5.19,0.83
		c-2.31-1.67-5.13-2.34-7.94-1.89c-2.81,0.45-5.28,1.97-6.95,4.28c-1.32,1.83-2.02,3.99-2.02,6.25
		C-251.26,67.23-252.3,68.62-253.76,69.12z"/>
	<path class="st1" d="M-227.99,60.34c-1.47,0.5-3.15,0.05-4.15-1.24c-3.54-4.59-9.99-5.52-14.69-2.13c-1.67,1.2-3.99,0.83-5.19-0.84
		c-1.2-1.66-0.83-3.99,0.84-5.19c7.97-5.75,18.92-4.16,24.92,3.62c1.25,1.62,0.95,3.96-0.67,5.21
		C-227.26,60.02-227.62,60.21-227.99,60.34z"/>
</g>
<g>
	<path id="路径_1914_1_" class="st2" d="M173.68,242.23H66.67c-15.19,0-27.51,12.32-27.51,27.51v56.39
		c0,15.19,12.31,27.51,27.51,27.51c0,0,0,0,0,0h129.28"/>
	<path class="st1" d="M195.95,361.07H66.67c-19.27,0-34.94-15.67-34.94-34.94v-56.39c0-19.26,15.67-34.94,34.94-34.94h107.01v14.86
		H66.67c-11.07,0-20.07,9.01-20.07,20.07v56.39c0,11.07,9.01,20.07,20.07,20.08h129.28V361.07z"/>
</g>
<g>
	<path id="路径_1916_1_" class="st2" d="M87.47,242.23h108.48c15.19,0,27.51,12.32,27.51,27.51v56.39"/>
	<path class="st1" d="M230.89,326.13h-14.86v-56.39c0-11.07-9.01-20.07-20.08-20.07H87.47V234.8h108.48
		c19.27,0,34.94,15.67,34.94,34.94L230.89,326.13L230.89,326.13z"/>
</g>
<rect id="矩形_1157" x="165.5" y="288.24" class="st2" width="59.45" height="57.97"/>
<path class="st1" d="M250.99,361.07c-19.27,0-34.94-15.67-34.94-34.94v-56.39h14.86v56.39c0,11.07,9.01,20.08,20.08,20.08V361.07z"
	/>
<g id="组_864" transform="translate(41)">
	<g id="矩形_1150" transform="translate(526 291)">
		<path class="st6" d="M-284.82-71.88h83.24c10.26,0,18.58,8.32,18.58,18.58v44.59c0,10.26-8.32,18.58-18.58,18.58h-83.24
			c-10.26,0-18.58-8.32-18.58-18.58V-53.3C-303.4-63.56-295.08-71.88-284.82-71.88z"/>
		<path class="st1" d="M-201.58,9.87h-83.24c-10.24,0-18.58-8.33-18.58-18.58V-53.3c0-10.24,8.33-18.58,18.58-18.58h83.24
			c10.24,0,18.58,8.33,18.58,18.58v44.59C-183,1.54-191.33,9.87-201.58,9.87z M-284.82-57.02c-2.05,0-3.72,1.67-3.72,3.72v44.59
			c0,2.05,1.67,3.72,3.72,3.72h83.24c2.05,0,3.72-1.67,3.72-3.72V-53.3c0-2.05-1.67-3.72-3.72-3.72H-284.82z"/>
	</g>
	<g id="组_860" transform="translate(0 -5)">
		<path class="st5" d="M275.99,283.58c-1.52,0-3.04-0.58-4.2-1.74l-12.56-12.56c-2.32-2.32-2.32-6.09,0-8.41
			c2.32-2.32,6.09-2.32,8.41,0l12.56,12.56c2.32,2.32,2.32,6.09,0,8.41C279.03,283,277.51,283.58,275.99,283.58z"/>
		<path class="st5" d="M276.09,283.68c-1.52,0-3.04-0.58-4.2-1.74c-2.32-2.32-2.32-6.09,0-8.41l25.47-25.47
			c2.32-2.32,6.09-2.32,8.41,0c2.32,2.32,2.32,6.09,0,8.41l-25.47,25.47C279.13,283.09,277.61,283.68,276.09,283.68z"/>
	</g>
</g>
<rect id="矩形_1211" x="285.16" y="165.61" class="st7" width="58.71" height="20.07"/>
</svg>
