<?xml version="1.0" encoding="utf-8"?>
<!-- Generator: Adobe Illustrator 25.0.0, SVG Export Plug-In . SVG Version: 6.00 Build 0)  -->
<svg version="1.1" id="图层_1" xmlns="http://www.w3.org/2000/svg" xmlns:xlink="http://www.w3.org/1999/xlink" x="0px" y="0px"
	 viewBox="0 0 400 400" style="enable-background:new 0 0 400 400;" xml:space="preserve">
<style type="text/css">
	.st0{fill:#B6BDC6;}
	.st1{fill:#3D3D63;}
	.st2{fill:#8F969E;}
	.st3{fill:#61617E;}
	.st4{fill:#FFFFFF;}
	.st5{fill:none;}
	.st6{fill:#F1A430;}
</style>
<g id="矩形_78" transform="translate(339 113)">
	<path class="st0" d="M-250.77-55.52h223c16.57,0,30,13.43,30,30v264c0,16.57-13.43,30-30,30h-223c-16.57,0-30-13.43-30-30v-264
		C-280.77-42.09-267.34-55.52-250.77-55.52z"/>
	<path class="st1" d="M-27.77,268.48h-223c-16.54,0-30-13.46-30-30v-264c0-16.54,13.46-30,30-30h223c16.54,0,30,13.46,30,30v264
		C2.23,255.02-11.23,268.48-27.77,268.48z M-250.77-39.52c-7.72,0-14,6.28-14,14v264c0,7.72,6.28,14,14,14h223c7.72,0,14-6.28,14-14
		v-264c0-7.72-6.28-14-14-14H-250.77z"/>
</g>
<path id="矩形_83" class="st2" d="M89.23,80.48h220c2.76,0,5,2.24,5,5v266c0,2.76-2.24,5-5,5h-220c-2.76,0-5-2.24-5-5v-266
	C84.23,82.72,86.47,80.48,89.23,80.48z"/>
<g id="组_674" transform="translate(-240 90)">
	<g id="组_54" transform="translate(812 66)">
		<rect x="-279.77" y="-59.52" class="st3" width="28" height="8"/>
		<rect x="-280.77" y="-42.52" class="st3" width="29" height="8"/>
	</g>
	<g id="组_54-2" transform="translate(812 109)">
		<rect x="-279.77" y="-59.52" class="st3" width="28" height="8"/>
		<rect x="-280.77" y="-42.52" class="st3" width="29" height="8"/>
	</g>
	<g id="组_54-3" transform="translate(812 152)">
		<rect x="-279.77" y="-59.52" class="st3" width="28" height="8"/>
		<rect x="-280.77" y="-42.52" class="st3" width="29" height="8"/>
	</g>
	<g id="组_54-4" transform="translate(812 195)">
		<rect x="-279.77" y="-59.52" class="st3" width="28" height="8"/>
		<rect x="-280.77" y="-42.52" class="st3" width="29" height="8"/>
	</g>
</g>
<g id="组_675" transform="translate(-453 186)">
	<g id="组_54-5" transform="translate(812 66)">
		<rect x="-279.77" y="-59.52" class="st3" width="28" height="8"/>
		<rect x="-280.77" y="-42.52" class="st3" width="29" height="8"/>
	</g>
	<g id="组_54-6" transform="translate(812 109)">
		<rect x="-279.77" y="-59.52" class="st3" width="28" height="8"/>
		<rect x="-280.77" y="-42.52" class="st3" width="29" height="8"/>
	</g>
	<g id="组_54-7" transform="translate(812 152)">
		<rect x="-279.77" y="-59.52" class="st3" width="28" height="8"/>
		<rect x="-280.77" y="-42.52" class="st3" width="29" height="8"/>
	</g>
	<g id="组_54-8" transform="translate(812 195)">
		<rect x="-279.77" y="-59.52" class="st3" width="28" height="8"/>
		<rect x="-280.77" y="-42.52" class="st3" width="29" height="8"/>
	</g>
</g>
<g id="组_676" transform="translate(0 -8)">
	<g id="矩形_82" transform="translate(372 144)">
		<path class="st4" d="M-270.77-55.52h196c5.52,0,10,4.48,10,10v246c0,5.52-4.48,10-10,10h-196c-5.52,0-10-4.48-10-10v-246
			C-280.77-51.04-276.29-55.52-270.77-55.52z"/>
		<path class="st1" d="M-74.77,210.48h-196c-5.51,0-10-4.49-10-10v-246c0-5.51,4.49-10,10-10h196c5.51,0,10,4.49,10,10v246
			C-64.77,205.99-69.26,210.48-74.77,210.48z M-264.77,194.48h184v-234h-184V194.48z"/>
	</g>
	<g id="组_75" transform="translate(-2378 -2040)">
		<path class="st1" d="M2631.38,2330.98h-108.65c-3.87,0-7-3.13-7-7s3.13-7,7-7h108.65c3.87,0,7,3.13,7,7
			S2635.24,2330.98,2631.38,2330.98z"/>
		<path class="st1" d="M2614.38,2262.48h-91.65c-3.87,0-7-3.13-7-7s3.13-7,7-7h91.65c3.87,0,7,3.13,7,7
			S2618.24,2262.48,2614.38,2262.48z"/>
		<path class="st1" d="M2598.73,2296.48h-75c-3.87,0-7-3.13-7-7s3.13-7,7-7h75c3.87,0,7,3.13,7,7S2602.6,2296.48,2598.73,2296.48z"
			/>
	</g>
	<g id="组_672" transform="translate(0 8)">
		<g id="椭圆_322" transform="translate(428.37 183.169)">
			<ellipse class="st5" cx="-263.16" cy="-37.91" rx="17.61" ry="17.61"/>
			<path class="st1" d="M-263.16-20.3c-9.71,0-17.61-7.9-17.61-17.61s7.9-17.61,17.61-17.61s17.61,7.9,17.61,17.61
				S-253.45-20.3-263.16-20.3z M-263.16-45.52c-4.2,0-7.61,3.42-7.61,7.61s3.42,7.61,7.61,7.61s7.61-3.42,7.61-7.61
				S-258.96-45.52-263.16-45.52z"/>
		</g>
		<g id="组_668" transform="translate(432.605 207.895) rotate(19)">
			<path class="st1" d="M-281.92,66.52c-0.51,0.18-1.06,0.27-1.63,0.27c-2.76,0-5-2.24-5-5c0-5.91,1.83-11.56,5.29-16.35
				c4.36-6.03,10.82-10.01,18.17-11.19c7.35-1.18,14.73,0.57,20.76,4.94c2.24,1.62,2.74,4.74,1.12,6.98
				c-1.62,2.24-4.74,2.74-6.98,1.12c-3.87-2.8-8.6-3.92-13.32-3.17c-4.72,0.76-8.86,3.31-11.65,7.18c-2.22,3.07-3.39,6.7-3.39,10.49
				C-278.55,63.98-279.96,65.85-281.92,66.52z"/>
			<path class="st1" d="M-240.9,52.54c-1.97,0.68-4.24,0.07-5.58-1.67c-5.94-7.69-16.77-9.26-24.65-3.57
				c-2.24,1.62-5.36,1.11-6.98-1.13c-1.62-2.24-1.11-5.36,1.13-6.98c12.28-8.87,29.15-6.42,38.42,5.57c1.69,2.19,1.28,5.33-0.9,7.01
				C-239.92,52.11-240.4,52.37-240.9,52.54z"/>
		</g>
	</g>
</g>
<g id="组_74">
	<g>
		<path id="联合_9_1_" class="st6" d="M129.23,88.48V56.19h40.44c-0.04-16.36,13.19-29.67,29.55-29.71c0,0,0,0,0,0
			c16.36,0.04,29.6,13.34,29.55,29.71h40.45v32.29H129.23z"/>
		<path class="st1" d="M269.23,96.48h-140c-4.42,0-8-3.58-8-8V56.19c0-4.42,3.58-8,8-8h33.28c3.64-16.92,18.7-29.66,36.69-29.71
			c18.04,0.05,33.1,12.79,36.74,29.71h33.29c4.42,0,8,3.58,8,8v32.29C277.23,92.9,273.65,96.48,269.23,96.48z M137.23,80.48h124
			V64.19h-32.45c-2.12,0-4.16-0.85-5.66-2.35c-1.5-1.5-2.34-3.54-2.34-5.67c0.03-11.93-9.65-21.66-21.58-21.69
			c-11.89,0.03-21.57,9.76-21.54,21.69c0.01,2.12-0.83,4.17-2.34,5.67c-1.5,1.5-3.54,2.35-5.66,2.35h-32.44V80.48z"/>
	</g>
	<circle id="椭圆_37" class="st1" cx="199.23" cy="57.48" r="9"/>
</g>
</svg>
