<svg width="1000" height="800" xmlns="http://www.w3.org/2000/svg" xmlns:xlink="http://www.w3.org/1999/xlink">
 <g>
  <title>background</title>
  <rect fill="none" id="canvas_background" height="802" width="1002" y="-1" x="-1"/>
 </g>
 <g>
  <title>Layer 1</title>
  <g id="svg_1">
   <defs>
    <path d="m302.888,348.036c0,0 -28.675,-99.566 78.06,-161.696s233.384,-15.931 311.444,46.199s103.549,163.289 97.177,219.843s-20.71,140.19 -98.77,207.895c0,0 -15.134,11.948 15.931,16.727s67.705,58.943 2.39,115.497c0,0 -18.32,41.42 -86.822,31.065c0,0 -283.565,0 -242.146,0c0,0 -38.233,-63.723 -41.42,-125.852s-28.675,-84.432 -46.199,-92.398c-17.524,-7.965 -87.22,-31.463 -82.839,-56.155c3.206,-18.069 30.268,-43.411 40.667,-95.362c0,0 7.125,-20.534 -13.585,-41.243s7.169,-24.692 16.727,-30.268c9.558,-5.577 41.419,-23.898 49.385,-34.252z" id="XMLID_58_"/>
    <linearGradient y2="0.085222" x2="0.518285" y1="0.953943" x1="0.480474" id="XMLID_2_">
     <stop stop-color="#C7D8B6" offset="0"/>
     <stop stop-color="#2D97A8" offset="0.5"/>
     <stop stop-color="#0F543A" offset="1"/>
    </linearGradient>
    <linearGradient y2="0.793486" x2="0.13874" y1="0.166775" x1="0.921163" id="SVGID_1_">
     <stop stop-color="#FFFFFF" offset="0"/>
     <stop stop-color="#FFFFFF" stop-opacity="0" offset="0.4798"/>
    </linearGradient>
    <linearGradient y2="0.874729" x2="0.660384" y1="-0.125998" x1="0.217715" id="SVGID_2_">
     <stop stop-color="#FFFFFF" offset="0"/>
     <stop stop-color="#FFFFFF" stop-opacity="0" offset="0.6289"/>
    </linearGradient>
    <linearGradient y2="0.578956" x2="0.546151" y1="-0.109038" x1="0.226906" id="SVGID_3_">
     <stop stop-color="#FFFFFF" offset="0"/>
     <stop stop-color="#FFFFFF" stop-opacity="0" offset="0.8017"/>
    </linearGradient>
    <linearGradient y2="0.945092" x2="0.098247" y1="0.186569" x1="0.745843" id="SVGID_4_">
     <stop stop-color="#697DD3" offset="0"/>
     <stop stop-color="#7083D5" stop-opacity="0.9679" offset="0.0143"/>
     <stop stop-color="#A3AFE4" stop-opacity="0.7312" offset="0.1199"/>
     <stop stop-color="#CBD2F0" stop-opacity="0.5083" offset="0.2194"/>
     <stop stop-color="#E7EBF8" stop-opacity="0.3055" offset="0.3098"/>
     <stop stop-color="#F9FAFD" stop-opacity="0.1294" offset="0.3884"/>
     <stop stop-color="#FFFFFF" stop-opacity="0" offset="0.4461"/>
    </linearGradient>
    <linearGradient y2="0.630889" x2="0.49544" y1="-0.15618" x1="0.54906" id="XMLID_4_">
     <stop stop-color="#7AAF93" offset="0"/>
     <stop stop-color="#9EC6AC" offset="1"/>
    </linearGradient>
    <linearGradient y2="0.712874" x2="0.471714" y1="-0.03972" x1="0.649021" id="SVGID_5_">
     <stop stop-color="#7AAF93" offset="0"/>
     <stop stop-color="#9EC6AC" offset="1"/>
    </linearGradient>
    <linearGradient y2="0.789176" x2="0.502975" y1="-0.024278" x1="0.454123" id="XMLID_6_">
     <stop stop-color="#498D78" offset="0"/>
     <stop stop-color="#5FA58B" offset="1"/>
    </linearGradient>
    <linearGradient y2="0.33781" x2="0.517554" y1="-0.084463" x1="0.447546" id="SVGID_6_">
     <stop stop-color="#58AC92" offset="0"/>
     <stop stop-color="#6CB19E" offset="0.9944"/>
    </linearGradient>
    <linearGradient y2="0.034556" x2="0.513296" y1="0.650499" x1="0.501338" id="XMLID_8_">
     <stop stop-color="#639780" offset="0"/>
     <stop stop-color="#498971" offset="1"/>
    </linearGradient>
    <linearGradient y2="0.231994" x2="0.046346" y1="0.450843" x1="0.547202" id="SVGID_7_">
     <stop stop-color="#87C192" offset="0"/>
     <stop stop-color="#A6BFA1" offset="1"/>
    </linearGradient>
    <linearGradient y2="-0.030355" x2="-0.022525" y1="0.987702" x1="1.008816" id="SVGID_10_">
     <stop stop-color="#4BC2AC" offset="0.357"/>
     <stop stop-color="#62CAB7" stop-opacity="0.9287" offset="0.4028"/>
     <stop stop-color="#92DACD" stop-opacity="0.7653" offset="0.5079"/>
     <stop stop-color="#B9E7DF" stop-opacity="0.6022" offset="0.6128"/>
     <stop stop-color="#D8F2ED" stop-opacity="0.4423" offset="0.7156"/>
     <stop stop-color="#EDF9F7" stop-opacity="0.2867" offset="0.8156"/>
     <stop stop-color="#FBFDFD" stop-opacity="0.137" offset="0.9119"/>
     <stop stop-color="#FFFFFF" stop-opacity="0" offset="1"/>
    </linearGradient>
    <linearGradient y2="-0.029994" x2="-0.022422" y1="0.988063" x1="1.008913" id="SVGID_11_">
     <stop stop-color="#4BC2AC" offset="0.357"/>
     <stop stop-color="#62CAB7" stop-opacity="0.9287" offset="0.4028"/>
     <stop stop-color="#92DACD" stop-opacity="0.7653" offset="0.5079"/>
     <stop stop-color="#B9E7DF" stop-opacity="0.6022" offset="0.6128"/>
     <stop stop-color="#D8F2ED" stop-opacity="0.4423" offset="0.7156"/>
     <stop stop-color="#EDF9F7" stop-opacity="0.2867" offset="0.8156"/>
     <stop stop-color="#FBFDFD" stop-opacity="0.137" offset="0.9119"/>
     <stop stop-color="#FFFFFF" stop-opacity="0" offset="1"/>
    </linearGradient>
    <linearGradient y2="-0.029436" x2="-0.022367" y1="0.988641" x1="1.008951" id="SVGID_12_">
     <stop stop-color="#4BC2AC" offset="0.357"/>
     <stop stop-color="#62CAB7" stop-opacity="0.9287" offset="0.4028"/>
     <stop stop-color="#92DACD" stop-opacity="0.7653" offset="0.5079"/>
     <stop stop-color="#B9E7DF" stop-opacity="0.6022" offset="0.6128"/>
     <stop stop-color="#D8F2ED" stop-opacity="0.4423" offset="0.7156"/>
     <stop stop-color="#EDF9F7" stop-opacity="0.2867" offset="0.8156"/>
     <stop stop-color="#FBFDFD" stop-opacity="0.137" offset="0.9119"/>
     <stop stop-color="#FFFFFF" stop-opacity="0" offset="1"/>
    </linearGradient>
    <linearGradient y2="-0.030565" x2="-0.022697" y1="0.98749" x1="1.008634" id="SVGID_13_">
     <stop stop-color="#4BC2AC" offset="0.357"/>
     <stop stop-color="#62CAB7" stop-opacity="0.9287" offset="0.4028"/>
     <stop stop-color="#92DACD" stop-opacity="0.7653" offset="0.5079"/>
     <stop stop-color="#B9E7DF" stop-opacity="0.6022" offset="0.6128"/>
     <stop stop-color="#D8F2ED" stop-opacity="0.4423" offset="0.7156"/>
     <stop stop-color="#EDF9F7" stop-opacity="0.2867" offset="0.8156"/>
     <stop stop-color="#FBFDFD" stop-opacity="0.137" offset="0.9119"/>
     <stop stop-color="#FFFFFF" stop-opacity="0" offset="1"/>
    </linearGradient>
    <radialGradient gradientUnits="userSpaceOnUse" r="94.389" cy="339.5115" cx="571.7169" id="SVGID_14_">
     <stop stop-color="#FFFFFF" offset="0"/>
     <stop stop-color="#FFFFFF" stop-opacity="0.0708" offset="0.9292"/>
     <stop stop-color="#FFFFFF" stop-opacity="0" offset="1"/>
    </radialGradient>
   </defs>
   <use id="svg_2" fill="url(#XMLID_2_)" xlink:href="#XMLID_58_"/>
   <clipPath id="XMLID_3_">
    <use id="svg_3" xlink:href="#XMLID_58_"/>
   </clipPath>
   <path id="svg_4" clip-path="url(#XMLID_3_)" fill="url(#SVGID_1_)" d="m357.011,409.105c-0.789,0 -1.574,0.016 -2.357,0.04c0.084,-1.487 0.131,-2.985 0.131,-4.493c0,-43.447 -35.221,-78.669 -78.669,-78.669c-43.447,0 -78.669,35.221 -78.669,78.669s35.221,78.669 78.669,78.669c2.002,0 3.985,-0.076 5.949,-0.223c-0.004,0.322 -0.012,0.642 -0.012,0.965c0,41.398 33.56,74.958 74.958,74.958s74.958,-33.56 74.958,-74.958c0,-41.398 -33.56,-74.958 -74.958,-74.958z"/>
   <path id="svg_5" clip-path="url(#XMLID_3_)" fill="url(#SVGID_2_)" d="m818.91,375.913c-43.326,-18.635 -93.285,-0.088 -114.274,41.437c-23.094,4.001 -44.175,17.332 -57.502,37.711c-38.148,-10.427 -79.123,8.563 -95.196,45.932c-17.588,40.892 1.304,88.299 42.196,105.887c34.115,14.673 72.761,3.952 94.847,-23.748c39.628,14.904 83.975,-1.313 104.897,-37.432c30.579,-3.511 58.479,-22.845 71.513,-53.148c19.372,-45.045 -1.437,-97.265 -46.481,-116.639z"/>
   <path id="svg_6" clip-path="url(#XMLID_3_)" fill="url(#SVGID_3_)" d="m777.648,295.301c-25.219,-9.132 -52.74,1.194 -66.139,23.278c-21.666,-7.587 -44.923,-0.971 -59.514,15.045c-31.305,-2.404 -61.665,15.275 -74.387,45.22c-14.718,7.492 -26.736,20.371 -32.803,37.124c-12.68,35.015 5.427,73.68 40.442,86.359c27.73,10.042 57.745,0.772 75.334,-20.911c24.895,-4.868 46.689,-22.299 55.955,-47.886c1.654,-4.567 2.829,-9.189 3.562,-13.815c8.398,-4.65 15.625,-11.471 20.748,-20.036c28.505,9.788 59.697,-5.046 69.998,-33.493c10.408,-28.74 -4.455,-60.477 -33.196,-70.885z"/>
   <path id="svg_7" clip-path="url(#XMLID_3_)" fill="url(#SVGID_4_)" d="m477.499,382.955c-6.057,0 -11.935,0.776 -17.545,2.232c-0.376,-30.945 -24.254,-56.128 -54.331,-57.948c0.004,-0.237 0.018,-0.472 0.018,-0.71c0,-22.306 -17.786,-40.389 -39.727,-40.389c-1.481,0 -2.94,0.089 -4.379,0.25c0.186,-1.741 0.289,-3.507 0.289,-5.298c0,-26.735 -21.317,-48.407 -47.614,-48.407c-26.296,0 -47.614,21.673 -47.614,48.407s21.317,48.407 47.614,48.407c4.15,0 8.174,-0.542 12.012,-1.556c0.525,15.493 9.624,28.77 22.632,35.068c-2.934,7.042 -4.557,14.785 -4.557,22.914c0,32.475 25.895,58.801 57.837,58.801c1.825,0 3.627,-0.096 5.408,-0.264c-0.481,3.384 -0.734,6.842 -0.734,10.362c0,39.692 31.649,71.868 70.69,71.868s70.69,-32.176 70.69,-71.868s-31.648,-71.869 -70.689,-71.869z"/>
   <g id="svg_8" clip-path="url(#XMLID_3_)">
    <path id="svg_9" opacity="0.5" fill="#B9D1AF" d="m687.196,587.623c0,0 63.063,-8.336 89.883,-35.881c0,0 54.18,67.662 64.513,68.862l-95.865,5.396l-58.531,-38.377z"/>
    <path id="svg_10" fill="#91BFA2" d="m297.945,511.15c0,0 86.983,-10.873 103.655,-31.894c0,0 68.771,38.508 77.198,39.596l-90.427,32.891l-90.426,-40.593z"/>
    <path id="svg_11" fill="#A2C6AC" d="m509.786,546.849c0,0 47.841,-10.873 70.13,-23.377c0,0 40.773,41.317 67.956,41.317l-139.334,-4.822l1.248,-13.118z"/>
    <g id="svg_12">
     <defs>
      <path d="m504.893,552.829c0,0 126.126,7.611 173.967,-11.96c0,0 127.126,90.245 148.372,93.507l-296.244,-30.444l-26.095,-51.103z" id="XMLID_57_"/>
     </defs>
     <use id="svg_13" fill="url(#XMLID_4_)" xlink:href="#XMLID_57_"/>
     <clipPath id="XMLID_5_">
      <use id="svg_14" xlink:href="#XMLID_57_"/>
     </clipPath>
     <path id="svg_15" clip-path="url(#XMLID_5_)" fill="url(#SVGID_5_)" d="m654.396,491.397c0,0 63.969,96.769 32.8,178.86l186.138,0l-186.138,-219.633l-32.8,40.773z"/>
    </g>
    <g id="svg_16">
     <defs>
      <path d="m111.293,500.639c0,0 70.674,1.087 182.665,-38.055c0,0 83.722,59.801 156.57,72.849l-157.658,58.714l-181.578,-9.786l0,-83.722l0.001,0z" id="XMLID_59_"/>
     </defs>
     <use id="svg_17" fill="url(#XMLID_6_)" xlink:href="#XMLID_59_"/>
     <clipPath id="XMLID_7_">
      <use id="svg_18" xlink:href="#XMLID_59_"/>
     </clipPath>
     <path id="svg_19" clip-path="url(#XMLID_7_)" fill="url(#SVGID_6_)" d="m297.312,409.368c0,0 -25.489,192.761 81.246,321.799l216.656,-267.635l-297.902,-54.164z"/>
    </g>
    <g id="svg_20">
     <defs>
      <path d="m847.39,611.543c0,0 -233.768,-18.484 -374.029,-106.555c0,0 -210.935,85.896 -333.799,106.555l574.091,106.555l175.054,-13.047l-41.317,-93.508z" id="XMLID_56_"/>
     </defs>
     <use id="svg_21" fill="url(#XMLID_8_)" xlink:href="#XMLID_56_"/>
     <clipPath id="XMLID_9_">
      <use id="svg_22" xlink:href="#XMLID_56_"/>
     </clipPath>
     <path id="svg_23" clip-path="url(#XMLID_9_)" fill="url(#SVGID_7_)" d="m478.798,453.886c0,0 -28.27,161.463 41.861,254.427l368.049,94.594l42.948,-146.785l-167.263,-226.063l-285.595,23.827z"/>
    </g>
   </g>
   <polygon id="svg_24" clip-path="url(#XMLID_3_)" fill="#27594E" points="348.29,661.072 381.744,579.826 398.471,661.072  "/>
   <polygon id="svg_25" clip-path="url(#XMLID_3_)" fill="#27594E" points="431.926,673.02 433.988,541.593 477.328,682.579  "/>
   <polygon id="svg_26" clip-path="url(#XMLID_3_)" fill="#27594E" points="563.353,682.579 602.916,612.086 602.916,682.579  "/>
   <polygon id="svg_27" clip-path="url(#XMLID_3_)" fill="#27594E" points="649.379,682.579 663.54,545.678 685.223,682.579  "/>
   <g id="svg_28" clip-path="url(#XMLID_3_)">
    <defs>
     <path d="m162.977,525.731c0,0 162.726,112.016 317.258,117.912c154.531,5.896 423.791,37.732 489.349,94.329l0,87.255l-806.607,0l0,-299.496" id="SVGID_8_"/>
    </defs>
    <use id="svg_29" fill="#ECEFDA" xlink:href="#SVGID_8_"/>
    <clipPath id="SVGID_9_">
     <use id="svg_30" xlink:href="#SVGID_8_"/>
    </clipPath>
    <polygon id="svg_31" clip-path="url(#SVGID_9_)" fill="#A7C2B1" points="360.238,614.873 321.208,661.869 374.309,625.358   "/>
    <polygon id="svg_32" clip-path="url(#SVGID_9_)" fill="#A7C2B1" points="404.445,673.02 423.562,628.813 449.848,631.202   "/>
    <polygon id="svg_33" clip-path="url(#SVGID_9_)" fill="#A7C2B1" points="568.133,639.566 592.028,645.54 566.413,677.127   "/>
    <polygon id="svg_34" clip-path="url(#SVGID_9_)" fill="#A7C2B1" points="641.015,645.54 668.495,647.93 642.21,689.747   "/>
   </g>
   <polygon id="svg_35" clip-path="url(#XMLID_3_)" fill="#1C3D2C" points="209.496,723.202 307.667,500.97 307.667,744.708  "/>
   <polygon id="svg_36" clip-path="url(#XMLID_3_)" fill="#1C3D2C" points="376.965,854.629 441.484,718.423 460.601,871.357  "/>
   <polygon id="svg_37" clip-path="url(#XMLID_3_)" fill="#1C3D2C" points="546.626,871.357 546.626,673.02 602.916,871.357  "/>
   <path id="svg_38" clip-path="url(#XMLID_3_)" fill="url(#SVGID_10_)" d="m394.424,158.633l66.843,46.662c1.46,0.958 3.438,0.548 4.396,-0.912l0,0c0.958,-1.46 0.548,-3.438 -0.912,-4.396l-69.397,-42.771c-1.459,-0.958 -2.389,0.459 -0.93,1.417z"/>
   <path id="svg_39" clip-path="url(#XMLID_3_)" fill="url(#SVGID_11_)" d="m731.985,436.347l66.843,46.662c1.46,0.958 3.438,0.548 4.396,-0.912l0,0c0.958,-1.46 0.548,-3.438 -0.912,-4.396l-69.397,-42.771c-1.459,-0.958 -2.39,0.459 -0.93,1.417z"/>
   <path id="svg_40" clip-path="url(#XMLID_3_)" fill="url(#SVGID_12_)" d="m484.873,419.134l43.483,30.354c0.95,0.623 2.236,0.356 2.86,-0.593l0,0c0.623,-0.95 0.356,-2.236 -0.593,-2.86l-45.144,-27.823c-0.951,-0.623 -1.556,0.299 -0.606,0.922z"/>
   <path id="svg_41" clip-path="url(#XMLID_3_)" fill="url(#SVGID_13_)" d="m300.079,323.993l92.366,64.479c2.017,1.324 4.751,0.757 6.075,-1.26l0,0c1.324,-2.017 0.757,-4.751 -1.26,-6.075l-95.896,-59.102c-2.017,-1.325 -3.302,0.634 -1.285,1.958z"/>
   <circle id="svg_42" clip-path="url(#XMLID_3_)" fill="#FFFFFF" r="75.423" cy="339.512" cx="571.717"/>
   <circle id="svg_43" clip-path="url(#XMLID_3_)" fill="url(#SVGID_14_)" r="94.389" cy="339.512" cx="571.717"/>
   <circle id="svg_44" clip-path="url(#XMLID_3_)" fill="#EFF0E2" r="13.101" cy="291.979" cx="586.94"/>
   <circle id="svg_45" clip-path="url(#XMLID_3_)" fill="#EFF0E2" r="5.728" cy="310.808" cx="621.362"/>
   <circle id="svg_46" clip-path="url(#XMLID_3_)" fill="#EFF0E2" r="17.726" cy="344.637" cx="609.364"/>
   <g id="svg_47" clip-path="url(#XMLID_3_)">
    <circle id="svg_48" opacity="0.6" fill="#FFFFFF" r="1.892" cy="226.564" cx="382.142"/>
    <circle id="svg_49" fill="#FFFFFF" r="0.647" cy="291.979" cx="680.443"/>
    <circle id="svg_50" fill="#FFFFFF" r="0.398" cy="374.321" cx="445.253"/>
    <circle id="svg_51" fill="#FFFFFF" r="0.53" cy="203.66" cx="573.839"/>
    <circle id="svg_52" fill="#FFFFFF" r="1.169" cy="226.564" cx="436.889"/>
    <circle id="svg_53" fill="#FFFFFF" r="1.195" cy="518.891" cx="721.067"/>
    <circle id="svg_54" fill="#FFFFFF" r="0.837" cy="477.911" cx="460.601"/>
    <circle id="svg_55" fill="#FFFFFF" r="0.62" cy="442.502" cx="573.839"/>
    <circle id="svg_56" fill="#FFFFFF" r="2.676" cy="469.547" cx="712.703"/>
    <circle id="svg_57" opacity="0.46" fill="#FFFFFF" r="2.274" cy="491.062" cx="635.454"/>
    <circle id="svg_58" fill="#FFFFFF" r="1.062" cy="469.547" cx="522.73"/>
    <circle id="svg_59" opacity="0.51" fill="#FFFFFF" r="0.996" cy="399.412" cx="704.339"/>
    <circle id="svg_60" fill="#FFFFFF" r="1.593" cy="270.515" cx="409.225"/>
    <circle id="svg_61" opacity="0.32" fill="#FFFFFF" r="1.991" cy="316.536" cx="721.067"/>
    <circle id="svg_62" fill="#FFFFFF" r="0.862" cy="245.123" cx="615.634"/>
    <circle id="svg_63" fill="#FFFFFF" r="1.792" cy="196.296" cx="522.73"/>
    <circle id="svg_64" opacity="0.44" fill="#FFFFFF" r="1.311" cy="291.979" cx="477.328"/>
    <circle id="svg_65" fill="#FFFFFF" r="1.892" cy="226.564" cx="491.636"/>
    <circle id="svg_66" fill="#FFFFFF" r="1.287" cy="336.273" cx="409.225"/>
    <circle id="svg_67" fill="#FFFFFF" r="2.29" cy="391.048" cx="284.966"/>
    <circle id="svg_68" opacity="0.49" fill="#FFFFFF" r="2.39" cy="414.934" cx="320.81"/>
    <circle id="svg_69" fill="#FFFFFF" r="1.981" cy="423.298" cx="425.952"/>
    <circle id="svg_70" fill="#FFFFFF" r="2.705" cy="291.979" cx="343.909"/>
   </g>
  </g>
 </g>
</svg>